# xmcd
#
# Track frame offsets: 
#        150
#        10640
#        16244
#        31309
#        43071
#        53424
#        62548
#        73955
#        86516
#        103507
#        119157
#        133503
#
# Disc length: 1987 seconds
#
# Revision: 1
# Processed by: cddbd v1.5.2PL0 Copyright (c) Steve Scherf et al.
# Submitted via: ExactAudioCopy v1.0b3
#
DISCID=9807c10c
DTITLE=Maximo Park - Missing Songs
DYEAR=2005
DGENRE=Alt. Rock
TTITLE0=A19
TTITLE1=Isolation
TTITLE2=My Life In Reverse
TTITLE3=Fear Of Falling
TTITLE4=I Want You To Leave
TTITLE5=A Year Of Doubt
TTITLE6=Trial And Error
TTITLE7=Stay Talk
TTITLE8=Hammer Horror
TTITLE9=Apply Some Pressure [Original Demo Version]
TTITLE10=Graffiti [Original Demo Version]
TTITLE11=Once, A Glimpse [Original Demo Version]
EXTD=
EXTT0=
EXTT1=
EXTT2=
EXTT3=
EXTT4=
EXTT5=
EXTT6=
EXTT7=
EXTT8=
EXTT9=
EXTT10=
EXTT11=
PLAYORDER=
